<svg width="1440" height="682" viewBox="0 0 1440 682" fill="none" xmlns="http://www.w3.org/2000/svg">
<circle cx="995" cy="289" r="150" fill="url(#paint0_linear_4_106)" fill-opacity="0.8"/>
<rect width="1440" height="598" fill="url(#paint1_linear_4_106)" fill-opacity="0.3"/>
<path d="M1427 462L1438.5 533V660.5H1V504.5L77.5 423H149L235.5 372.5L312 389.5L379 339L451.5 360L506 317L571.5 329.5L603.5 299H658.5L698.5 310L750.5 329.5L823 317L942.5 289L1015.5 329.5H1118.5L1164.5 360H1226L1296 418.5L1388 410.5L1427 462Z" fill="#2F1A38"/>
<path d="M60 494.5L0 554V681.5H1437.5V525.5L1361 444L1268.5 479.5L1203 393.5L1123.5 424.5L1064 355.5L989.5 391L941 334L888.5 358.5L847.5 305.5L816.5 330L778.5 294L691 375L640.5 338L539.5 423.5L474 375L367.5 465.5L341 444L278.5 494.5L208.5 444L114.5 532.5L60 494.5Z" fill="black" stroke="black"/>
<rect y="15" width="1440" height="5" fill="black" fill-opacity="0.04"/>
<rect y="26" width="1440" height="5" fill="black" fill-opacity="0.04"/>
<rect y="37" width="1440" height="5" fill="black" fill-opacity="0.04"/>
<rect y="48" width="1440" height="5" fill="black" fill-opacity="0.04"/>
<rect y="59" width="1440" height="5" fill="black" fill-opacity="0.04"/>
<rect y="70" width="1440" height="5" fill="black" fill-opacity="0.04"/>
<rect y="81" width="1440" height="5" fill="black" fill-opacity="0.04"/>
<rect y="92" width="1440" height="5" fill="black" fill-opacity="0.04"/>
<rect y="103" width="1440" height="5" fill="black" fill-opacity="0.04"/>
<rect y="114" width="1440" height="5" fill="black" fill-opacity="0.04"/>
<rect y="125" width="1440" height="5" fill="black" fill-opacity="0.04"/>
<rect y="136" width="1440" height="5" fill="black" fill-opacity="0.04"/>
<rect y="147" width="1440" height="5" fill="black" fill-opacity="0.04"/>
<rect y="158" width="1440" height="5" fill="black" fill-opacity="0.04"/>
<rect y="169" width="1440" height="5" fill="black" fill-opacity="0.04"/>
<rect y="180" width="1440" height="5" fill="black" fill-opacity="0.04"/>
<rect y="191" width="1440" height="5" fill="black" fill-opacity="0.04"/>
<rect y="202" width="1440" height="5" fill="black" fill-opacity="0.04"/>
<rect y="213" width="1440" height="5" fill="black" fill-opacity="0.04"/>
<rect y="224" width="1440" height="5" fill="black" fill-opacity="0.04"/>
<rect y="235" width="1440" height="5" fill="black" fill-opacity="0.04"/>
<rect y="246" width="1440" height="5" fill="black" fill-opacity="0.04"/>
<rect y="257" width="1440" height="5" fill="black" fill-opacity="0.04"/>
<rect y="268" width="1440" height="5" fill="black" fill-opacity="0.04"/>
<rect y="279" width="1440" height="5" fill="black" fill-opacity="0.04"/>
<rect y="290" width="1440" height="5" fill="black" fill-opacity="0.04"/>
<rect y="301" width="1440" height="5" fill="black" fill-opacity="0.04"/>
<rect y="312" width="1440" height="5" fill="black" fill-opacity="0.04"/>
<rect y="323" width="1440" height="5" fill="black" fill-opacity="0.04"/>
<rect y="334" width="1440" height="5" fill="black" fill-opacity="0.04"/>
<rect y="345" width="1440" height="5" fill="black" fill-opacity="0.04"/>
<rect y="356" width="1440" height="5" fill="black" fill-opacity="0.04"/>
<rect y="367" width="1440" height="5" fill="black" fill-opacity="0.04"/>
<rect y="378" width="1440" height="5" fill="black" fill-opacity="0.04"/>
<rect y="389" width="1440" height="5" fill="black" fill-opacity="0.04"/>
<rect y="400" width="1440" height="5" fill="black" fill-opacity="0.04"/>
<rect y="411" width="1440" height="5" fill="black" fill-opacity="0.04"/>
<rect y="422" width="1440" height="5" fill="black" fill-opacity="0.04"/>
<rect y="433" width="1440" height="5" fill="black" fill-opacity="0.04"/>
<rect y="444" width="1440" height="5" fill="black" fill-opacity="0.04"/>
<rect y="455" width="1440" height="5" fill="black" fill-opacity="0.04"/>
<rect y="466" width="1440" height="5" fill="black" fill-opacity="0.04"/>
<rect y="477" width="1440" height="5" fill="black" fill-opacity="0.04"/>
<rect y="488" width="1440" height="5" fill="black" fill-opacity="0.04"/>
<rect y="499" width="1440" height="5" fill="black" fill-opacity="0.04"/>
<rect y="510" width="1440" height="5" fill="black" fill-opacity="0.04"/>
<rect y="521" width="1440" height="5" fill="black" fill-opacity="0.04"/>
<rect y="532" width="1440" height="5" fill="black" fill-opacity="0.04"/>
<rect y="543" width="1440" height="5" fill="black" fill-opacity="0.04"/>
<defs>
<linearGradient id="paint0_linear_4_106" x1="995" y1="139" x2="995" y2="439" gradientUnits="userSpaceOnUse">
<stop stop-color="#FF00B8"/>
<stop offset="1" stop-opacity="0"/>
</linearGradient>
<linearGradient id="paint1_linear_4_106" x1="720" y1="0" x2="720" y2="598" gradientUnits="userSpaceOnUse">
<stop/>
<stop offset="0.645833" stop-color="#CB36FF"/>
</linearGradient>
</defs>
</svg>
